<?xml version="1.0" encoding="utf-8"?>
<!-- Generator: Adobe Illustrator 14.0.0, SVG Export Plug-In . SVG Version: 6.00 Build 43363)  -->
<!DOCTYPE svg PUBLIC "-//W3C//DTD SVG 1.1//EN" "http://www.w3.org/Graphics/SVG/1.1/DTD/svg11.dtd">
<svg version="1.1" id="Layer_1" xmlns="http://www.w3.org/2000/svg" xmlns:xlink="http://www.w3.org/1999/xlink" x="0px" y="0px"
	 width="32px" height="32px" viewBox="0 0 32 32" enable-background="new 0 0 32 32" xml:space="preserve">
<g>
	<rect x="11.748" y="21.253" fill="#FFFFFF" width="3.522" height="1.312"/>
	<rect x="11.748" y="6.833" fill="#FFFFFF" width="3.522" height="1.311"/>
	<rect x="20.063" y="12.937" fill="#FFFFFF" width="1.312" height="3.522"/>
	<rect x="5.644" y="12.937" fill="#FFFFFF" width="1.311" height="3.522"/>
	<polygon fill="#FFFFFF" points="9.126,21.253 6.954,21.253 6.954,19.082 5.644,19.082 5.644,21.253 5.644,22.563 6.954,22.563 
		9.126,22.563 	"/>
	<polygon fill="#FFFFFF" points="20.063,19.082 20.063,21.253 17.893,21.253 17.893,22.563 20.063,22.563 21.374,22.563 
		21.374,21.253 21.374,19.082 	"/>
	<polygon fill="#FFFFFF" points="6.954,10.315 6.954,8.144 9.126,8.144 9.126,6.833 6.954,6.833 5.644,6.833 5.644,8.144 
		5.644,10.315 	"/>
	<polygon fill="#FFFFFF" points="17.893,8.144 20.063,8.144 20.063,10.315 21.374,10.315 21.374,8.144 21.374,6.833 20.063,6.833 
		17.893,6.833 	"/>
</g>
<polygon fill="#FFFFFF" points="24.318,21.908 24.632,25.166 21.374,24.854 "/>
</svg>
