<?xml version="1.0" encoding="utf-8"?>
<!-- Generator: Adobe Illustrator 14.0.0, SVG Export Plug-In . SVG Version: 6.00 Build 43363)  -->
<!DOCTYPE svg PUBLIC "-//W3C//DTD SVG 1.1//EN" "http://www.w3.org/Graphics/SVG/1.1/DTD/svg11.dtd">
<svg version="1.1" id="Layer_1" xmlns="http://www.w3.org/2000/svg" xmlns:xlink="http://www.w3.org/1999/xlink" x="0px" y="0px"
	 width="150px" height="40px" viewBox="0 0 150 40" enable-background="new 0 0 150 40" xml:space="preserve">
<g>
	<g>
		<path fill="#E6E6E6" d="M14.736,12.639v-2.126h1.8v2.126H14.736z M14.736,25.574V14.663h1.8v10.912L14.736,25.574L14.736,25.574z"
			/>
		<path fill="#E6E6E6" d="M22.543,23.918l0.259,1.635c-0.507,0.109-0.96,0.164-1.36,0.164c-0.653,0-1.16-0.105-1.521-0.318
			c-0.36-0.211-0.614-0.489-0.76-0.836c-0.146-0.348-0.22-1.073-0.22-2.186v-6.275h-1.32v-1.439h1.32v-2.702l1.791-1.11v3.812h1.811
			v1.439h-1.811v6.378c0,0.527,0.03,0.867,0.094,1.019c0.063,0.149,0.166,0.271,0.31,0.358c0.144,0.091,0.351,0.136,0.617,0.136
			C21.953,23.992,22.217,23.967,22.543,23.918z"/>
		<path fill="#E6E6E6" d="M23.07,22.316l1.781-0.287c0.1,0.731,0.379,1.295,0.835,1.686c0.458,0.391,1.095,0.584,1.916,0.584
			c0.826,0,1.44-0.172,1.84-0.52c0.4-0.344,0.601-0.75,0.601-1.217c0-0.418-0.177-0.746-0.53-0.985
			c-0.247-0.163-0.86-0.372-1.841-0.626c-1.32-0.344-2.236-0.64-2.746-0.889c-0.511-0.25-0.897-0.596-1.161-1.038
			c-0.264-0.441-0.396-0.93-0.396-1.464c0-0.486,0.109-0.936,0.325-1.351c0.218-0.414,0.512-0.758,0.885-1.032
			c0.281-0.212,0.662-0.393,1.146-0.54c0.483-0.147,1.002-0.221,1.556-0.221c0.833,0,1.565,0.124,2.196,0.371
			c0.63,0.246,1.095,0.581,1.395,1.001c0.301,0.421,0.508,0.985,0.621,1.69l-1.76,0.246c-0.081-0.561-0.313-1-0.695-1.315
			c-0.384-0.315-0.926-0.472-1.626-0.472c-0.826,0-1.417,0.14-1.771,0.421c-0.353,0.281-0.53,0.61-0.53,0.987
			c0,0.239,0.073,0.455,0.22,0.647c0.147,0.199,0.377,0.363,0.69,0.493c0.18,0.069,0.71,0.226,1.59,0.473
			c1.274,0.35,2.163,0.635,2.666,0.858c0.505,0.222,0.899,0.546,1.186,0.972c0.287,0.424,0.43,0.951,0.43,1.581
			c0,0.615-0.175,1.195-0.525,1.74c-0.35,0.545-0.856,0.968-1.515,1.265c-0.661,0.297-1.408,0.446-2.242,0.446
			c-1.381,0-2.433-0.295-3.156-0.885C23.732,24.348,23.27,23.475,23.07,22.316z"/>
		<path fill="#E6E6E6" d="M32.771,20.118c0-2.02,0.547-3.517,1.642-4.489c0.913-0.809,2.027-1.213,3.342-1.213
			c1.46,0,2.654,0.492,3.581,1.475c0.927,0.983,1.39,2.34,1.39,4.074c0,1.405-0.205,2.508-0.614,3.313
			c-0.411,0.806-1.008,1.431-1.792,1.875c-0.784,0.445-1.639,0.668-2.565,0.668c-1.488,0-2.69-0.489-3.607-1.469
			C33.229,23.371,32.771,21.96,32.771,20.118z M34.622,20.118c0,1.397,0.297,2.444,0.89,3.14c0.594,0.695,1.341,1.041,2.242,1.041
			c0.893,0,1.636-0.348,2.23-1.047c0.594-0.699,0.892-1.764,0.892-3.194c0-1.351-0.3-2.373-0.896-3.068
			c-0.596-0.695-1.339-1.043-2.225-1.043c-0.901,0-1.648,0.347-2.242,1.038C34.919,17.676,34.622,18.721,34.622,20.118z"/>
	</g>
	<g>
		<path fill="#E6E6E6" d="M49.641,14.066c0.641,0,1.272,0.064,1.891,0.19c0.621,0.127,1.174,0.331,1.661,0.612
			c0.487,0.281,0.88,0.649,1.181,1.104c0.301,0.455,0.451,1.012,0.451,1.669h-3.792c-0.006-0.219-0.06-0.399-0.16-0.539
			c-0.099-0.141-0.224-0.25-0.367-0.329c-0.144-0.078-0.297-0.132-0.463-0.159c-0.166-0.028-0.321-0.041-0.461-0.041
			c-0.086,0-0.212,0.002-0.38,0.01c-0.166,0.007-0.333,0.033-0.497,0.077c-0.163,0.044-0.303,0.115-0.424,0.211
			c-0.12,0.096-0.18,0.232-0.18,0.41c0,0.199,0.1,0.354,0.301,0.468c0.199,0.113,0.464,0.205,0.791,0.272
			c0.328,0.068,0.701,0.13,1.12,0.185c0.42,0.054,0.847,0.124,1.284,0.21c0.438,0.085,0.867,0.202,1.287,0.349
			c0.42,0.147,0.795,0.348,1.121,0.601c0.328,0.254,0.591,0.572,0.791,0.956c0.2,0.383,0.3,0.86,0.3,1.428
			c0,0.76-0.153,1.395-0.457,1.9c-0.303,0.506-0.71,0.912-1.224,1.213s-1.11,0.512-1.787,0.635
			c-0.677,0.125-1.384,0.188-2.125,0.188c-0.681,0-1.354-0.072-2.018-0.217c-0.663-0.143-1.258-0.371-1.784-0.684
			c-0.526-0.311-0.953-0.711-1.281-1.201c-0.326-0.49-0.489-1.08-0.489-1.771h3.782v0.08c0.006,0.269,0.073,0.486,0.203,0.654
			c0.13,0.166,0.286,0.297,0.471,0.391c0.184,0.092,0.377,0.154,0.58,0.189c0.203,0.033,0.383,0.051,0.537,0.051
			c0.139,0,0.307-0.008,0.503-0.02c0.198-0.014,0.384-0.047,0.56-0.1c0.177-0.052,0.328-0.132,0.45-0.24
			c0.125-0.109,0.188-0.266,0.188-0.463c0-0.205-0.1-0.369-0.299-0.494c-0.201-0.121-0.465-0.223-0.79-0.301
			c-0.327-0.078-0.701-0.148-1.122-0.211c-0.419-0.063-0.85-0.142-1.287-0.236c-0.437-0.096-0.863-0.217-1.283-0.365
			c-0.42-0.146-0.793-0.346-1.121-0.596c-0.327-0.25-0.59-0.562-0.79-0.935c-0.2-0.374-0.3-0.833-0.3-1.382
			c0-0.733,0.149-1.34,0.45-1.823c0.301-0.482,0.701-0.868,1.2-1.156c0.501-0.287,1.078-0.492,1.731-0.611
			C48.244,14.126,48.929,14.066,49.641,14.066z"/>
		<path fill="#E6E6E6" d="M60.892,14.324h2.301v2.835h-2.301v4.233c0,0.238,0.016,0.447,0.05,0.627
			c0.033,0.178,0.094,0.328,0.179,0.451c0.086,0.122,0.204,0.215,0.351,0.276s0.336,0.094,0.571,0.094h1.15v2.466
			c-0.174,0.055-0.375,0.104-0.602,0.153c-0.229,0.047-0.461,0.088-0.701,0.121c-0.238,0.037-0.475,0.063-0.705,0.078
			c-0.23,0.018-0.435,0.026-0.614,0.026c-0.554,0-1.061-0.049-1.521-0.145c-0.46-0.096-0.855-0.26-1.186-0.488
			c-0.329-0.229-0.586-0.535-0.769-0.914c-0.184-0.381-0.275-0.854-0.275-1.424V17.16H55.3v-2.835h1.681l0.88-3.37h3.032
			L60.892,14.324L60.892,14.324z"/>
		<path fill="#E6E6E6" d="M68.445,13.019h-4.082v-2.846h4.082V13.019z M68.445,25.43h-4.082V14.324h4.082V25.43z"/>
		<path fill="#E6E6E6" d="M75.613,14.066c0.826,0,1.604,0.087,2.328,0.263c0.724,0.175,1.354,0.452,1.895,0.832
			c0.54,0.38,0.967,0.87,1.275,1.47c0.313,0.599,0.465,1.324,0.465,2.172h-3.953c0-0.658-0.172-1.137-0.521-1.438
			c-0.351-0.301-0.849-0.451-1.486-0.451c-0.36,0-0.668,0.054-0.922,0.164c-0.252,0.11-0.461,0.268-0.621,0.473
			c-0.159,0.205-0.275,0.454-0.352,0.745c-0.078,0.291-0.117,0.622-0.117,0.991v1.203c0,0.734,0.162,1.309,0.487,1.727
			c0.322,0.416,0.856,0.627,1.603,0.627c0.668,0,1.186-0.152,1.548-0.453c0.364-0.301,0.545-0.795,0.545-1.479h3.791
			c0,0.843-0.152,1.566-0.464,2.173c-0.311,0.604-0.736,1.103-1.276,1.483c-0.541,0.386-1.171,0.666-1.896,0.849
			c-0.724,0.183-1.502,0.272-2.326,0.272c-0.922,0-1.754-0.121-2.506-0.358c-0.75-0.24-1.391-0.603-1.92-1.086
			c-0.53-0.481-0.94-1.088-1.228-1.817c-0.288-0.729-0.431-1.58-0.431-2.554c0-0.972,0.143-1.821,0.431-2.548
			c0.286-0.725,0.696-1.33,1.228-1.813c0.529-0.482,1.17-0.843,1.92-1.083C73.859,14.187,74.691,14.066,75.613,14.066z"/>
		<path fill="#E6E6E6" d="M86.734,18.567l3.472-4.243h4.753l-4.001,4.479l4.103,6.626h-4.633l-2.271-3.812l-1.422,1.416v2.396h-4.07
			V10.153h4.07V18.567L86.734,18.567z"/>
		<path fill="#E6E6E6" d="M103.413,25.09c-0.247,0.693-0.522,1.33-0.826,1.912c-0.302,0.582-0.668,1.084-1.095,1.504
			c-0.428,0.422-0.93,0.752-1.506,0.986c-0.577,0.236-1.26,0.355-2.047,0.355c-0.494,0-0.944-0.039-1.354-0.119
			c-0.41-0.078-0.741-0.166-0.996-0.263v-2.495h1.642c0.359,0,0.651-0.056,0.875-0.164c0.226-0.109,0.402-0.242,0.535-0.402
			c0.133-0.156,0.229-0.324,0.284-0.502c0.06-0.178,0.099-0.336,0.125-0.473l-4.302-11.105h4.382l2.072,7.386h0.14l1.91-7.386h4.012
			L103.413,25.09z"/>
	</g>
</g>
</svg>
